<?xml version="1.0" encoding="utf-8"?>
<!-- Generator: Adobe Illustrator 27.5.0, SVG Export Plug-In . SVG Version: 6.00 Build 0)  -->
<svg version="1.1" id="Layer_1" xmlns="http://www.w3.org/2000/svg" xmlns:xlink="http://www.w3.org/1999/xlink" x="0px" y="0px"
	 viewBox="0 0 429.47 429.47" style="enable-background:new 0 0 429.47 429.47;" xml:space="preserve">
<style type="text/css">
	.st0{font-family:'ArialMT';}
	.st1{font-size:12px;}
	.st2{fill:#ED6E32;}
	.st3{fill:none;}
</style>
<text transform="matrix(1 0 0 1 0 2.402959e-05)" class="st0 st1"> </text>
<g>
	<path class="st2" d="M214.73,319.63c-57.83,0-104.88-47.05-104.88-104.88s47.05-104.88,104.88-104.88
		c28.02,0,54.35,10.91,74.16,30.72l7.45,7.45c0.65,0.65,0.65,1.69,0,2.34l-14.89,14.89c-0.62,0.62-1.72,0.62-2.34,0l-7.45-7.45
		c-15.21-15.21-35.43-23.58-56.93-23.58c-44.39,0-80.5,36.11-80.5,80.5s36.11,80.51,80.5,80.51c39.75,0,73.64-29.24,79.59-68.32
		h-40.94v38.88c0,0.91-0.74,1.66-1.66,1.66h-21.06c-0.91,0-1.66-0.74-1.66-1.66v-38.88h-28.55v38.88c0,0.91-0.74,1.66-1.66,1.66
		h-21.06c-0.91,0-1.66-0.74-1.66-1.66v-38.88h-18.4c-0.91,0-1.66-0.74-1.66-1.66v-21.06c0-0.91,0.74-1.66,1.66-1.66h18.4v-38.88
		c0-0.91,0.74-1.66,1.66-1.66h73.98c0.91,0,1.66,0.74,1.66,1.66v38.89h64.58c0.91,0,1.66,0.74,1.66,1.66v10.53
		C319.61,272.58,272.56,319.63,214.73,319.63z M214.73,113.19c-56,0-101.56,45.56-101.56,101.56s45.56,101.56,101.56,101.56
		s101.56-45.56,101.56-101.56v-8.87h-64.58c-0.91,0-1.66-0.74-1.66-1.66v-38.89H179.4v38.88c0,0.91-0.74,1.66-1.66,1.66h-18.4v17.75
		h18.4c0.91,0,1.66,0.74,1.66,1.66v38.88h17.75v-38.88c0-0.91,0.74-1.66,1.66-1.66h31.86c0.91,0,1.66,0.74,1.66,1.66v38.88h17.75
		v-38.88c0-0.91,0.74-1.66,1.66-1.66h44.5c0.48,0,0.93,0.2,1.24,0.56s0.46,0.83,0.4,1.3c-5.35,41.66-41.09,73.08-83.13,73.08
		c-46.22,0-83.82-37.6-83.82-83.82s37.6-83.82,83.82-83.82c22.39,0,43.44,8.72,59.27,24.56l6.28,6.28l12.55-12.55l-6.28-6.28
		C267.37,123.75,241.87,113.19,214.73,113.19z M230.67,205.87h-31.86c-0.91,0-1.66-0.74-1.66-1.66v-19.48
		c0-0.91,0.74-1.66,1.66-1.66h31.86c0.91,0,1.66,0.74,1.66,1.66v19.48C232.32,205.13,231.58,205.87,230.67,205.87z M200.46,202.56
		h28.55v-16.17h-28.55V202.56z"/>
</g>
<g>
	<g id="SVGID_x5F_1_x5F__00000026871588440355211650000015210511254916250261_">
		<path class="st3" d="M55.15,214.79c0-88.13,71.45-159.58,159.58-159.58s159.58,71.45,159.58,159.58"/>
	</g>
	<g id="SVGID_x5F_00000112618534946357558020000007547909232623414457_x5F__00000075164926635238866900000016361860299418468998_">
		<path class="st3" d="M55.22,214.79c0-88.09,71.41-159.51,159.51-159.51s159.51,71.41,159.51,159.51S302.83,374.3,214.73,374.3
			S55.22,302.87,55.22,214.79z"/>
	</g>
	<g>
		<g>
			<path class="st2" d="M99.95,71.61c6.71,9.5,13.71,13.32,20.13,8.78c4.62-3.26,7.55-8.36,1.92-16.32l-0.86-1.22l-8.87,6.26
				l-3.38-4.78l13.48-9.53l14.1,19.96l-3.82,2.7l-3.62-4.68c0.49,5.54-1.25,9.16-5.87,12.42c-9.93,7.01-20.17,1.75-28.42-9.92
				C86.31,63.34,85.71,51.9,95.48,45c7.17-5.06,15.37-3.7,22.11,3.24l-5.2,3.68c-3.79-4.01-8.35-5.96-13.87-2.06
				C92.41,54.17,93.01,61.78,99.95,71.61z"/>
			<path class="st2" d="M165.22,37.58c5.11,13.22,3.35,24.91-7.63,29.15c-10.98,4.24-20.13-3.23-25.24-16.45
				C127.22,37,129.02,25.43,140,21.19S160.1,24.3,165.22,37.58z M138.3,47.98c4.29,11.1,10.02,16.2,17.24,13.41
				c7.28-2.81,8.03-10.42,3.75-21.52c-4.29-11.1-9.94-16.16-17.21-13.35C134.85,29.31,134.02,36.88,138.3,47.98z"/>
			<path class="st2" d="M213.88,54.19l-6.58,0.8l-4.38-9.62l-17.87,2.18l-1.88,10.38l-6.58,0.8l9.65-48.66l6.58-0.8L213.88,54.19z
				 M186.15,41.59l14.26-1.74l-9.89-21.98L186.15,41.59z"/>
			<path class="st2" d="M243.94,48.62l8.14-37.44l6.13,0.75l-10.46,46.19l-7.94-0.98l-2.42-25.05l-8.42,23.72l-8-0.98l1.11-47.34
				l6.13,0.75l-1.24,38.29l8.06-22.98l6.64,0.82L243.94,48.62z"/>
			<path class="st2" d="M289.86,72.79l-6.18-2.4l0.67-10.54l-16.79-6.5l-6.55,8.27l-6.18-2.4l31.45-38.35l6.18,2.4L289.86,72.79z
				 M271.35,48.61l13.39,5.19l1.65-24.04L271.35,48.61z"/>
			<path class="st2" d="M343.91,53.05l5.89,4.17l-30.28,14.64L309.3,86.29l-5.04-3.57l10.22-14.43l3.75-33.43l5.89,4.17l-3.41,25.86
				L343.91,53.05z"/>
		</g>
		<g>
			<path class="st2" d="M386.83,99.47l6.93,12.06c3.92,6.82,5.73,14.55-2.39,19.21c-3.89,2.23-8.17,2.74-11.29,1.09
				c0.37,4.43-1.48,8.27-6.49,11.15c-8.68,4.98-15.78,0.59-19.99-6.74l-7.64-13.3L386.83,99.47z M354.11,125.37l4.82,8.4
				c2.95,5.13,6.8,6.36,11.43,3.71c4.79-2.75,5.16-6.41,1.99-11.94l-4.6-8L354.11,125.37z M372.54,114.79l4.5,7.83
				c2.43,4.23,5.67,5.96,10.46,3.21c4.17-2.4,4.19-6.15,1.83-10.27l-4.5-7.83L372.54,114.79z"/>
			<path class="st2" d="M387.75,167.19c-0.36-1.05-0.68-2.17-0.99-3.3l-1.44-5.13l-19.09,5.36l-1.67-5.94l45.37-12.74l3.11,11.08
				c2.78,9.89,2.79,18.12-8.03,21.16c-7.07,1.99-11.49-0.28-14.44-4.79L373,188.22l-1.9-6.76L387.75,167.19z M405.96,152.96
				l-15.02,4.22l1.63,5.82c1.69,6.01,3.57,10.54,10.58,8.57c7.01-1.97,6.13-6.79,4.44-12.79L405.96,152.96z"/>
			<path class="st2" d="M398.26,227.17c-14.16,0.4-24.59-5.16-24.93-16.92c-0.33-11.76,9.77-17.9,23.93-18.3
				c14.23-0.4,24.53,5.16,24.86,16.92C422.46,220.64,412.49,226.77,398.26,227.17z M397.45,198.32
				c-11.89,0.33-18.61,4.04-18.4,11.77c0.22,7.8,7.14,11.05,19.03,10.71s18.55-3.97,18.33-11.77
				C416.2,201.31,409.34,197.99,397.45,198.32z"/>
			<path class="st2" d="M377.44,259.49l36.51,11.63l-1.33,6.03l-45-14.77l1.72-7.81l25.17-0.05l-22.82-10.62l1.73-7.87l47.03,5.56
				l-1.33,6.03l-38-4.84l22.11,10.19l-1.44,6.54L377.44,259.49z"/>
			<path class="st2" d="M395.79,287.79c7.26,3.64,8.42,12.07,4.64,19.62c-3.26,6.51-10.04,11.33-18.87,8.07l2.74-5.46
				c5.38,1.89,9.25-1.62,11.17-5.46s2.01-8.81-2.35-10.99c-3.72-1.86-6.89-0.03-9.33,2.96l-3.03,3.72
				c-4.92,6.04-10.85,10.49-18.87,6.47c-7.85-3.93-9.5-12.39-5.42-20.53c4.28-8.54,12.91-12,21.51-8.27l-2.74,5.46
				c-5.93-2.24-11.05,0.14-13.75,5.54c-2.1,4.18-2.04,9.59,2.78,12.01c4.36,2.18,7.99-0.14,11.34-4.21l3.4-4.04
				C383,287.79,389.11,284.45,395.79,287.79z"/>
			<path class="st2" d="M380.44,339.01l-18.3,21.3l-4.44-3.81l14.27-16.61l-10.65-9.15l-13.43,15.63l-4.44-3.81l13.43-15.63
				l-11.78-10.12l-14.27,16.62l-4.44-3.81l18.3-21.3L380.44,339.01z"/>
			<path class="st2" d="M317.45,361.9c0.86-0.69,1.82-1.37,2.77-2.04l4.35-3.08l-11.46-16.18l5.04-3.57l27.24,38.46l-9.39,6.65
				c-8.38,5.94-16.13,8.71-22.63-0.46c-4.25-6-3.59-10.92-0.34-15.21l-20.34-11.4l5.73-4.06L317.45,361.9z M336.97,374.29
				l-9.02-12.73l-4.93,3.49c-5.09,3.61-8.73,6.9-4.53,12.84c4.21,5.94,8.45,3.5,13.54-0.11L336.97,374.29z"/>
			<path class="st2" d="M253.76,418.2l-27.87,3.43l-0.71-5.81l21.74-2.67l-1.71-13.93l-20.45,2.51l-0.71-5.81l20.45-2.51l-1.9-15.42
				l-21.74,2.67l-0.71-5.81l27.87-3.43L253.76,418.2z"/>
			<path class="st2" d="M195.64,398.19l10.86,23.78l-7.1-0.86l-8.01-17.61l-12.19,15.15l-6.71-0.82l16.21-20.23l-12.2-26.76
				l7.03,0.86l9.41,20.59l14.21-17.72l6.78,0.83L195.64,398.19z"/>
			<path class="st2" d="M145.3,403.27l13.22,5.11l-2.11,5.46l-32.2-12.44l2.11-5.46l13.22,5.11l14.87-38.51l5.76,2.23L145.3,403.27z
				"/>
			<path class="st2" d="M106.79,391.56l-22.93-16.2l3.38-4.78l17.89,12.64l8.1-11.47L96.4,359.86l3.38-4.78l16.83,11.89l8.96-12.69
				l-17.89-12.64l3.38-4.78l22.93,16.2L106.79,391.56z"/>
			<path class="st2" d="M89.91,314.29l-20.65,37.68l30.49-26.25l4.03,4.68l-35.71,30.74l-6.02-6.99l20.55-37.59l-30.4,26.16
				l-4.03-4.68l35.71-30.74L89.91,314.29z"/>
			<path class="st2" d="M47.82,316.01c-7.26,3.65-14.71-0.47-18.5-8.02c-3.27-6.51-3.08-14.82,4.82-19.95l2.74,5.46
				c-4.73,3.18-4.23,8.38-2.3,12.21c1.92,3.83,5.86,6.88,10.21,4.69c3.72-1.87,4.15-5.5,3.21-9.25l-1.17-4.65
				c-1.9-7.56-1.92-14.97,6.1-19c7.84-3.94,15.61-0.2,19.7,7.93c4.29,8.54,1.89,17.53-6.24,22.19l-2.74-5.46
				c5.34-3.41,6.5-8.94,3.78-14.34c-2.1-4.18-6.47-7.37-11.29-4.95c-4.36,2.19-4.67,6.49-3.41,11.61l1.2,5.14
				C55.47,305.76,54.5,312.65,47.82,316.01z"/>
			<path class="st2" d="M16.22,274.24l-6.47-29.26l5.71-1.26l2.57,11.61l34.59-7.65l-2.57-11.61l5.71-1.26l6.47,29.26l-5.71,1.26
				l-2.57-11.61l-34.59,7.65l2.57,11.61L16.22,274.24z"/>
			<path class="st2" d="M32.18,192.18c14.16,0.38,24.27,6.51,23.95,18.27c-0.32,11.76-10.74,17.33-24.9,16.95
				C17,227.02,7.02,220.9,7.34,209.14C7.65,197.37,17.95,191.79,32.18,192.18z M31.4,221.02c11.89,0.32,18.81-3,19.02-10.73
				c0.21-7.8-6.52-11.42-18.41-11.75c-11.89-0.32-18.74,2.94-18.95,10.74C12.84,217.01,19.51,220.7,31.4,221.02z"/>
			<path class="st2" d="M62.71,165.98l-42.81,3.69l38.75,10.83l-1.66,5.95L11.6,173.77l2.49-8.89l42.69-3.73l-38.63-10.8l1.66-5.95
				l45.39,12.69L62.71,165.98z"/>
			<path class="st2" d="M38.02,131.85c-7.05-4.04-7.74-12.52-3.54-19.85c3.62-6.32,10.65-10.76,19.29-7.01l-3.04,5.3
				c-5.26-2.19-9.32,1.11-11.45,4.83s-2.5,8.68,1.73,11.1c3.61,2.07,6.88,0.42,9.48-2.44l3.23-3.54c5.25-5.76,11.42-9.87,19.2-5.41
				c7.62,4.36,8.79,12.9,4.27,20.79c-4.75,8.29-13.56,11.26-21.94,7.06l3.04-5.3c5.79,2.57,11.04,0.48,14.04-4.77
				c2.33-4.06,2.57-9.46-2.11-12.14c-4.23-2.42-7.99-0.3-11.56,3.57l-3.62,3.84C50.79,132.57,44.5,135.56,38.02,131.85z"/>
		</g>
	</g>
</g>
<text transform="matrix(1 0 0 1 0 2.402959e-05)" class="st0 st1"> </text>
</svg>
